<svg width="101" height="112" viewBox="0 0 101 112" fill="none" xmlns="http://www.w3.org/2000/svg">
<path fill-rule="evenodd" clip-rule="evenodd" d="M89.6166 0C90.4756 20.2205 70.9148 29.0114 53.0558 36.9528C59.8849 38.3205 65.8866 41.9657 70.2278 47.0587C87.6476 39.6632 102.723 29.6778 89.6166 0ZM10.9066 33.1998C19.2111 24.0453 33.9316 27.0155 40.8042 36.9917C33.0634 38.5938 26.4006 43.1254 22.0373 49.37C16.3936 42.001 10.9324 38.3157 0.378906 33.1998H10.9066ZM70.5516 109.376C64.3479 106.242 60.8604 102.103 57.6025 95.0724C63.466 92.9068 68.4769 88.9927 71.9966 83.966C77.3861 97.7254 83.7077 104.795 98.1587 111.343H80.1167C76.8185 111.343 73.4929 110.863 70.5516 109.376ZM97.1117 27.0394C107.36 53.4053 92.9182 60.7784 77.4466 66.4259C77.4108 61.621 76.2519 57.0822 74.2185 53.0569C86.3207 47.7045 97.1113 40.7222 97.1117 27.0394ZM20.3697 37.5119C21.4898 37.5119 22.3979 36.6076 22.3979 35.492C22.3979 34.3765 21.4898 33.4722 20.3697 33.4722C19.2496 33.4722 18.3416 34.3765 18.3416 35.492C18.3416 36.6076 19.2496 37.5119 20.3697 37.5119Z" fill="#1D1D35"/>
<path fill-rule="evenodd" clip-rule="evenodd" d="M46.8633 90.6054C60.1446 90.6054 70.9111 79.8827 70.9111 66.6556C70.9111 53.4284 60.1446 42.7057 46.8633 42.7057C33.5821 42.7057 22.8155 53.4284 22.8155 66.6556C22.8155 71.3687 24.0811 75.7638 26.3112 79.4692C26.6841 82.123 23.3546 85.1022 19.3207 88.6018C18.5165 89.2995 19.0098 90.6055 20.0763 90.6055H46.5736L46.5725 90.6048L46.8633 90.6054ZM39.6194 66.9443C39.6194 68.2192 38.5816 69.2527 37.3015 69.2527C36.0214 69.2527 34.9837 68.2192 34.9837 66.9443C34.9837 65.6694 36.0214 64.6359 37.3015 64.6359C38.5816 64.6359 39.6194 65.6694 39.6194 66.9443ZM48.8908 66.9443C48.8908 68.2192 47.8531 69.2527 46.573 69.2527C45.2928 69.2527 44.2551 68.2192 44.2551 66.9443C44.2551 65.6694 45.2928 64.6359 46.573 64.6359C47.8531 64.6359 48.8908 65.6694 48.8908 66.9443ZM55.8444 69.2527C57.1245 69.2527 58.1623 68.2192 58.1623 66.9443C58.1623 65.6694 57.1245 64.6359 55.8444 64.6359C54.5643 64.6359 53.5265 65.6694 53.5265 66.9443C53.5265 68.2192 54.5643 69.2527 55.8444 69.2527Z" fill="url(#paint0_linear)"/>
<defs>
<linearGradient id="paint0_linear" x1="90.6539" y1="66.6556" x2="18.9219" y2="66.6556" gradientUnits="userSpaceOnUse">
<stop stop-color="#98D730"/>
<stop offset="1" stop-color="#00BF6D"/>
</linearGradient>
</defs>
</svg>
